<svg xmlns="https://www.w3.org/2000/svg" width="295.969" height="265" viewBox="0 0 295.969 265">
  <metadata><?xpacket begin="﻿" id="W5M0MpCehiHzreSzNTczkc9d"?>
<x:xmpmeta xmlns:x="adobe:ns:meta/" x:xmptk="Adobe XMP Core 5.6-c142 79.160924, 2017/07/13-01:06:39        ">
   <rdf:RDF xmlns:rdf="https://www.w3.org/1999/02/22-rdf-syntax-ns#">
      <rdf:Description rdf:about=""/>
   </rdf:RDF>
</x:xmpmeta>
                                                                                                    
                                                                                                    
                                                                                                    
                                                                                                    
                                                                                                    
                                                                                                    
                                                                                                    
                                                                                                    
                                                                                                    
                                                                                                    
                                                                                                    
                                                                                                    
                                                                                                    
                                                                                                    
                                                                                                    
                                                                                                    
                                                                                                    
                                                                                                    
                                                                                                    
                                                                                                    
                           
<?xpacket end="w"?></metadata>
<defs>
    <style>
      .cls-1 {
        fill: #4fa0ca;
        fill-opacity: 0.1;
        fill-rule: evenodd;
      }
    </style>
  </defs>
  <path id="decor" class="cls-1" d="M606.291,932.4c-0.007-.055-0.011-0.111-0.019-0.165a6.667,6.667,0,0,0-.163-0.807,0.019,0.019,0,0,1,0-.008,6.7,6.7,0,0,0-.254-0.738c-0.028-.07-0.059-0.137-0.089-0.2q-0.117-.263-0.258-0.518c-0.041-.074-0.08-0.149-0.124-0.222-0.024-.039-0.043-0.08-0.067-0.12-0.1-.157-0.208-0.305-0.318-0.451-0.02-.028-0.037-0.057-0.058-0.083a6.408,6.408,0,0,0-.538-0.61c-0.035-.036-0.074-0.069-0.111-0.1a6.754,6.754,0,0,0-.513-0.447c-0.046-.036-0.09-0.071-0.137-0.1a6.736,6.736,0,0,0-.741-0.485l-98.65-56.065,56.8-35.76,95.223,54.116-40.1,25.249A6.695,6.695,0,1,0,623.3,926.2l49.568-31.207a6.693,6.693,0,0,0-.259-11.485L564.18,821.884a6.7,6.7,0,0,0-6.877.154l-69.609,43.826-0.043.027-34.784,21.9c-0.016.01-.033,0.02-0.048,0.031l-69.657,43.855a6.694,6.694,0,0,0,.259,11.486l108.432,61.628a6.725,6.725,0,0,0,3.309.87,6.646,6.646,0,0,0,3.567-1.03L548.3,973.424a6.7,6.7,0,1,0-7.136-11.331l-46.176,29.072-95.223-54.118,56.8-35.76,101.559,57.718v76.445a6.7,6.7,0,0,0,10.264,5.66l34.829-21.92a6.709,6.709,0,0,0,3.129-5.67V933.182c0-.04-0.007-0.077-0.008-0.117C606.331,932.843,606.317,932.621,606.291,932.4Zm-34.776,90.922V955.11a6.7,6.7,0,0,0-3.388-5.82l-98.708-56.1,21.972-13.834,95.223,54.117-8.338,5.249a6.7,6.7,0,1,0,7.136,11.331l7.539-4.746v64.52Zm94.221-112.878-49.568,31.207a6.695,6.695,0,1,0,7.135,11.33l49.569-31.207A6.695,6.695,0,1,0,665.736,910.442Zm-124.574,78.43-46.177,29.068L390.038,958.3a6.7,6.7,0,1,0-6.618,11.641l108.433,61.628a6.724,6.724,0,0,0,3.308.87,6.649,6.649,0,0,0,3.568-1.03L548.3,1000.2A6.694,6.694,0,1,0,541.162,988.872Zm124.574-51.65-49.568,31.207a6.695,6.695,0,1,0,7.135,11.33l49.569-31.207A6.695,6.695,0,1,0,665.736,937.222ZM541.162,1015.65l-46.177,29.07L390.038,985.081a6.695,6.695,0,1,0-6.618,11.64l108.433,61.629a6.724,6.724,0,0,0,3.308.87,6.649,6.649,0,0,0,3.568-1.03l49.568-31.21A6.695,6.695,0,0,0,541.162,1015.65ZM665.736,964l-49.568,31.207a6.7,6.7,0,1,0,7.135,11.332l49.569-31.208A6.7,6.7,0,1,0,665.736,964ZM541.162,1042.43l-46.177,29.07-104.947-59.64a6.695,6.695,0,1,0-6.618,11.64l108.433,61.62a6.677,6.677,0,0,0,6.876-.15l49.568-31.21A6.695,6.695,0,0,0,541.162,1042.43Z" transform="translate(-380.031 -821)"/>
</svg>
